# Blender 4.1.1
# www.blender.org
o Suzanne
v -0.765625 0.437500 -0.164062
v -0.765625 -0.437500 -0.164062
v -0.578125 0.546875 -0.054688
v -0.578125 -0.546875 -0.054688
v -0.796875 0.273438 -0.164062
v -0.796875 -0.273438 -0.164062
v -0.648438 0.156250 -0.054688
v -0.648438 -0.156250 -0.054688
v -0.796875 0.273438 -0.328125
v -0.796875 -0.273438 -0.328125
v -0.648438 0.156250 -0.437500
v -0.648438 -0.156250 -0.437500
v -0.765625 0.437500 -0.328125
v -0.765625 -0.437500 -0.328125
v -0.578125 0.546875 -0.437500
v -0.578125 -0.546875 -0.437500
v -0.828125 0.351562 -0.242188
v -0.828125 -0.351562 -0.242188
v -0.742188 0.000000 -0.429688
v -0.820312 0.000000 -0.351562
v -0.781250 0.000000 0.320312
v -0.570312 0.000000 -0.570312
v 0.546875 0.000000 -0.898438
v 0.828125 0.000000 -0.070312
v 0.351562 0.000000 0.382812
v -0.562500 0.203125 0.187500
v -0.562500 -0.203125 0.187500
v -0.570312 0.351562 0.695312
v -0.570312 -0.351562 0.695312
v -0.523438 0.328125 0.945312
v -0.539062 0.632812 0.039062
v -0.539062 -0.632812 0.039062
v -0.687500 0.492188 -0.601562
v -0.687500 -0.492188 -0.601562
v -0.765625 0.125000 -0.304688
v -0.765625 -0.125000 -0.304688
v -0.703125 0.375000 -0.015625
v -0.703125 -0.375000 -0.015625
v -0.648438 0.625000 -0.187500
v -0.648438 -0.625000 -0.187500
v -0.648438 0.640625 -0.296875
v -0.648438 -0.640625 -0.296875
v -0.734375 0.000000 0.765625
v -0.734375 0.109375 0.718750
v -0.734375 -0.109375 0.718750
v -0.710938 0.117188 0.835938
v -0.710938 -0.117188 0.835938
v -0.687500 0.000000 0.890625
v -0.750000 0.000000 0.195312
v -0.742188 0.000000 0.140625
v -0.742188 0.101562 0.148438
v -0.742188 -0.101562 0.148438
v -0.742188 0.085938 0.289062
v -0.742188 -0.085938 0.289062
v -0.671875 0.398438 0.046875
v -0.671875 -0.398438 0.046875
v -0.625000 0.617188 -0.054688
v -0.625000 -0.617188 -0.054688
v -0.601562 0.726562 -0.203125
v -0.601562 -0.726562 -0.203125
v -0.726562 0.687500 -0.414062
v -0.726562 -0.687500 -0.414062
v -0.835938 0.312500 -0.640625
v -0.835938 -0.312500 -0.640625
v -0.843750 0.101562 -0.429688
v -0.843750 -0.101562 -0.429688
v -0.812500 0.125000 0.101562
v -0.812500 -0.125000 0.101562
v -0.664062 0.265625 0.820312
v -0.664062 -0.265625 0.820312
v -0.632812 0.164062 0.929688
v -0.632812 -0.164062 0.929688
v -0.726562 0.000000 -0.046875
v -0.765625 0.000000 -0.210938
v -0.750000 0.164062 -0.140625
v -0.750000 -0.164062 -0.140625
v -0.734375 0.117188 0.687500
v -0.734375 -0.117188 0.687500
v -0.750000 0.000000 0.445312
v -0.796875 0.132812 0.226562
v -0.796875 -0.132812 0.226562
v -0.781250 0.039062 0.125000
v -0.781250 -0.039062 0.125000
v -0.828125 0.000000 0.203125
v -0.554688 0.257812 0.312500
v -0.554688 -0.257812 0.312500
v -0.710938 0.164062 0.242188
v -0.710938 -0.164062 0.242188
v -0.687500 0.046875 0.867188
v -0.687500 -0.046875 0.867188
v -0.726562 0.093750 0.742188
v -0.726562 -0.093750 0.742188
v -0.656250 0.000000 0.781250
v -0.640625 0.093750 0.812500
v -0.640625 -0.093750 0.812500
v -0.781250 0.171875 -0.218750
v -0.781250 -0.171875 -0.218750
v -0.757812 0.335938 -0.429688
v -0.757812 -0.335938 -0.429688
v -0.695312 0.562500 -0.351562
v -0.695312 -0.562500 -0.351562
v -0.679688 0.578125 -0.195312
v -0.679688 -0.578125 -0.195312
v -0.718750 0.476562 -0.101562
v -0.718750 -0.476562 -0.101562
v -0.781250 0.226562 -0.109375
v -0.781250 -0.226562 -0.109375
v -0.781250 0.210938 -0.375000
v -0.781250 -0.210938 -0.375000
v -0.757812 0.195312 -0.296875
v -0.757812 -0.195312 -0.296875
v -0.726562 0.375000 -0.085938
v -0.726562 -0.375000 -0.085938
v -0.671875 0.546875 -0.210938
v -0.671875 -0.546875 -0.210938
v -0.671875 0.554688 -0.281250
v -0.671875 -0.554688 -0.281250
v -0.750000 0.414062 -0.390625
v -0.750000 -0.414062 -0.390625
v -0.765625 0.281250 -0.398438
v -0.765625 -0.281250 -0.398438
v -0.750000 0.203125 -0.171875
v -0.750000 -0.203125 -0.171875
v -0.609375 0.109375 -0.460938
v -0.609375 -0.109375 -0.460938
v -0.593750 0.335938 -0.687500
v -0.593750 -0.335938 -0.687500
v -0.554688 0.484375 -0.554688
v -0.554688 -0.484375 -0.554688
v -0.492188 0.679688 -0.453125
v -0.492188 -0.679688 -0.453125
v -0.375000 0.773438 -0.164062
v -0.375000 -0.773438 -0.164062
v -0.468750 0.437500 0.093750
v -0.468750 -0.437500 0.093750
v -0.289062 0.000000 -0.898438
v 0.046875 0.859375 -0.320312
v 0.046875 -0.859375 -0.320312
v 0.437500 0.773438 -0.265625
v 0.437500 -0.773438 -0.265625
v -0.070312 0.734375 0.046875
v -0.070312 -0.734375 0.046875
v 0.164062 0.593750 0.125000
v 0.164062 -0.593750 0.125000
v 0.429688 0.640625 0.007812
v 0.429688 -0.640625 0.007812
v -0.406250 0.234375 0.351562
v -0.406250 -0.234375 0.351562
v -0.359375 0.125000 0.539062
v -0.359375 -0.125000 0.539062
v -0.437500 0.164062 0.945312
v -0.437500 -0.164062 0.945312
v -0.429688 0.218750 0.281250
v -0.429688 -0.218750 0.281250
v -0.468750 0.210938 0.226562
v -0.468750 -0.210938 0.226562
v -0.164062 0.210938 0.390625
v -0.164062 -0.210938 0.390625
v -0.429688 0.460938 -0.523438
v -0.429688 -0.460938 -0.523438
v -0.054688 0.640625 -0.703125
v -0.054688 -0.640625 -0.703125
v 0.117188 0.796875 -0.617188
v 0.117188 -0.796875 -0.617188
v 0.445312 0.640625 -0.679688
v 0.445312 -0.640625 -0.679688
v 0.546875 0.484375 -0.023438
v 0.546875 -0.484375 -0.023438
v 0.203125 0.820312 -0.328125
v 0.203125 -0.820312 -0.328125
v -0.148438 0.406250 0.171875
v -0.148438 -0.406250 0.171875
v 0.210938 0.429688 0.195312
v 0.210938 -0.429688 0.195312
v 0.125000 0.773438 0.140625
v 0.125000 -0.773438 0.140625
v 0.429688 1.281250 -0.054688
v 0.429688 -1.281250 -0.054688
v 0.421875 1.234375 -0.507812
v 0.421875 -1.234375 -0.507812
v 0.312500 1.023438 -0.476562
v 0.312500 -1.023438 -0.476562
v 0.390625 1.187500 -0.437500
v 0.390625 -1.187500 -0.437500
v 0.406250 1.265625 -0.289062
v 0.406250 -1.265625 -0.289062
v 0.218750 0.921875 -0.359375
v 0.218750 -0.921875 -0.359375
v 0.210938 0.882812 0.023438
v 0.210938 -0.882812 0.023438
v 0.445312 1.187500 -0.093750
v 0.445312 -1.187500 -0.093750
v 0.437500 1.171875 -0.359375
v 0.437500 -1.171875 -0.359375
v 0.359375 1.023438 -0.343750
v 0.359375 -1.023438 -0.343750
v 0.273438 0.757812 -0.093750
v 0.273438 -0.757812 -0.093750
v 0.273438 0.843750 -0.015625
v 0.273438 -0.843750 -0.015625
v 0.070312 0.726562 0.000000
v 0.070312 -0.726562 0.000000
v 0.171875 0.718750 0.023438
v 0.171875 -0.718750 0.023438
v 0.187500 0.718750 -0.039062
v 0.187500 -0.718750 -0.039062
v 0.210938 0.796875 -0.203125
v 0.210938 -0.796875 -0.203125
v 0.320312 0.843750 -0.171875
v 0.320312 -0.843750 -0.171875
v 0.484375 1.187500 -0.343750
v 0.484375 -1.187500 -0.343750
v 0.492188 1.257812 -0.242188
v 0.492188 -1.257812 -0.242188
v 0.343750 0.953125 -0.289062
v 0.343750 -0.953125 -0.289062
v 0.335938 0.937500 -0.062500
v 0.335938 -0.937500 -0.062500
v 0.382812 1.054688 -0.187500
v 0.382812 -1.054688 -0.187500
v 0.546875 1.250000 -0.468750
v 0.546875 -1.250000 -0.468750
v 0.382812 0.859375 -0.382812
v 0.382812 -0.859375 -0.382812
vn -0.5365 0.1022 0.8377
vn -0.5365 -0.1022 0.8377
vn -0.9285 -0.3714 -0.0000
vn -0.8087 -0.5882 -0.0000
vn -0.9288 0.3595 0.0899
vn -0.5365 -0.1022 -0.8377
vn -0.8465 -0.1072 0.5215
vn -0.8010 -0.3070 0.5140
vn -0.9045 0.3015 0.3015
vn -0.4040 -0.3747 0.8345
vn -0.5841 -0.6947 0.4197
vn -0.2517 -0.8789 0.4052
vn -0.2109 0.3709 -0.9044
vn -0.9285 0.3714 -0.0000
vn -0.7977 -0.5654 -0.2096
vn -0.8689 0.1655 -0.4664
vn -1.0000 -0.0000 -0.0000
vn 0.6544 -0.3133 0.6882
vn -0.8689 -0.1655 -0.4664
vn -0.9178 -0.1512 0.3671
vn 0.2094 0.9517 -0.2245
vn -0.4577 -0.7217 0.5193
vn -0.8820 -0.4350 0.1812
vn -0.8427 0.4815 0.2408
vn -0.0797 -0.0417 0.9959
vn -0.7977 0.5654 -0.2096
vn -0.8497 0.1619 0.5017
vn 0.2094 -0.9517 -0.2245
vn -0.8917 0.1783 0.4161
vn -0.5774 0.5774 -0.5774
vn -0.4506 -0.4788 0.7534
vn -0.8575 -0.4677 0.2144
vn -0.6839 -0.7230 -0.0977
vn -0.4040 0.3747 0.8345
vn -0.9352 -0.3128 0.1662
vn -0.0986 0.6788 -0.7277
vn -0.9595 0.1341 -0.2476
vn -0.5841 0.6947 0.4197
vn -0.8427 -0.4815 0.2408
vn -0.9027 -0.4260 0.0609
vn -0.8820 0.4350 0.1812
vn -0.8427 -0.2408 0.4815
vn -0.0797 -0.0000 0.9968
vn 0.0442 -0.3291 -0.9433
vn 0.9164 -0.2516 -0.3112
vn 0.8792 0.4606 -0.1217
vn 0.9820 -0.0000 0.1888
vn 0.0024 0.8640 0.5034
vn -0.6720 0.7392 -0.0448
vn -0.6720 -0.7392 -0.0448
vn -0.2533 0.1752 0.9514
vn -0.2822 -0.4515 0.8465
vn 0.1954 -0.4453 0.8738
vn -0.0694 0.2457 0.9668
vn -0.1553 0.9564 -0.2473
vn -0.1553 -0.9564 -0.2473
vn -0.0694 -0.2457 0.9668
vn -0.2656 -0.9435 -0.1983
vn -0.8465 0.1072 0.5215
vn -0.9045 -0.3015 0.3015
vn -0.1269 0.1269 -0.9838
vn 0.2991 0.5914 -0.7489
vn -0.0690 -0.7030 -0.7078
vn -0.6054 0.4036 -0.6861
vn 0.2991 -0.5914 -0.7489
vn -0.4892 0.5511 -0.6760
vn -0.5968 0.5747 0.5600
vn -0.0708 0.7040 -0.7066
vn -0.8485 0.1854 0.4956
vn -0.5472 0.5714 -0.6116
vn -0.4892 -0.5511 -0.6760
vn -0.9380 0.0683 0.3398
vn -0.8478 -0.0519 0.5277
vn 0.0151 -0.0000 0.9999
vn -0.7731 0.3361 0.5378
vn -0.8451 -0.5038 0.1788
vn -0.8288 -0.5168 0.2145
vn -0.8131 -0.0847 0.5759
vn -0.9068 -0.3113 -0.2842
vn -0.9008 -0.4282 0.0727
vn -0.9417 -0.1207 0.3139
vn -0.8288 0.5168 0.2145
vn -0.8131 0.0847 0.5759
vn -0.9287 -0.0678 0.3647
vn -0.9872 0.0955 -0.1274
vn -0.9512 -0.0724 0.2998
vn 0.0925 -0.9101 -0.4039
vn -0.7737 0.0234 0.6331
vn -0.7737 -0.0234 0.6331
vn -0.6260 0.1507 0.7651
vn -0.5774 -0.5774 0.5774
vn -0.9352 0.3128 0.1662
vn -0.9979 -0.0000 0.0644
vn -0.4748 0.1131 -0.8728
vn -0.6839 0.7230 -0.0977
vn -0.2178 0.8440 -0.4901
vn -0.3452 -0.5805 0.7374
vn -0.8788 0.2755 -0.3895
vn -0.9027 0.4260 0.0609
vn -0.9178 0.1512 0.3671
vn -0.8575 -0.0000 -0.5145
vn -0.8917 -0.1783 0.4161
vn -0.2767 0.9586 -0.0664
vn -0.3581 0.8634 -0.3554
vn 0.1954 0.4453 0.8738
vn -0.8355 -0.2940 -0.4642
vn -0.8788 -0.2755 -0.3895
vn 0.4294 -0.0693 -0.9004
vn -0.8596 -0.5059 -0.0716
vn -0.8596 0.5059 -0.0716
vn -0.4506 0.4788 0.7534
vn -0.5774 0.5774 0.5774
vn 0.4294 0.0693 -0.9004
vn -0.9217 0.0112 -0.3878
vn -0.1897 0.2530 0.9487
vn 0.9806 -0.1681 -0.1005
vn -0.2218 -0.9366 0.2711
vn -0.4174 0.4816 -0.7706
vn -0.9921 0.1191 -0.0397
vn -0.9939 -0.1101 0.0109
vn -0.5472 -0.5714 -0.6116
vn -0.9631 0.1751 0.2043
vn -0.9398 -0.0000 -0.3417
vn -0.9288 -0.3595 0.0899
vn -0.9791 -0.1798 0.0949
vn -0.6260 -0.1507 0.7651
vn -0.9728 0.0066 0.2316
vn -0.0917 0.7460 0.6596
vn -0.8994 -0.2623 0.3498
vn -0.8485 -0.1854 0.4956
vn -0.9417 0.1207 0.3139
vn -0.9136 0.2922 -0.2829
vn -0.8865 0.3371 0.3169
vn -0.9130 -0.0247 -0.4072
vn -0.8865 -0.3371 0.3169
vn -0.9728 0.2304 -0.0256
vn -0.8932 0.3039 0.3315
vn -0.8932 -0.3039 0.3315
vn -0.8971 0.2760 -0.3450
vn -0.8355 0.2940 -0.4642
vn -0.8355 -0.5440 0.0777
vn -0.9728 -0.0066 0.2316
vn -0.8994 0.2623 0.3498
vn -0.8971 -0.2760 -0.3450
vn -0.9136 -0.2922 -0.2829
vn -0.9104 -0.2483 0.3310
vn -0.8355 0.5440 0.0777
vn -0.9728 -0.2304 -0.0256
vn -0.9217 -0.0112 -0.3878
vn -0.7701 -0.3662 -0.5224
vn -0.9130 0.0247 -0.4072
vn -0.9104 0.2483 0.3310
vn -0.7071 -0.7071 -0.0000
vn -0.9921 -0.1191 -0.0397
vn -0.8925 -0.3081 0.3294
vn -0.8925 0.3081 0.3294
vn -0.7701 0.3662 -0.5224
vn -0.9417 -0.0000 -0.3363
vn 0.9055 -0.3186 0.2803
vn -0.7071 0.7071 -0.0000
vn -0.9939 0.1101 0.0109
vn -0.5774 -0.5774 -0.5774
vn 0.1729 -0.9142 0.3664
vn -0.8427 0.2408 0.4815
vn -0.2109 -0.3709 -0.9044
vn 0.3300 -0.3502 -0.8766
vn -0.1269 -0.1269 -0.9838
vn -0.6054 -0.4036 -0.6861
vn 0.3300 0.3502 -0.8766
vn -0.7034 -0.4177 0.5751
vn -0.0986 -0.6788 -0.7277
vn 0.0024 -0.8640 0.5034
vn -0.4817 0.1404 -0.8650
vn -0.1800 0.8739 -0.4516
vn 0.9521 0.2958 -0.0769
vn -0.2517 0.8789 0.4052
vn -0.8711 0.2074 -0.4452
vn -0.7034 0.4177 0.5751
vn 0.9521 -0.2958 -0.0769
vn -0.5812 -0.0000 0.8137
vn 0.7574 -0.6476 0.0834
vn -0.8010 0.3070 0.5140
vn 0.2188 0.9318 -0.2894
vn 0.7755 -0.6102 0.1621
vn -0.2767 -0.9586 -0.0664
vn 0.2215 -0.9337 -0.2813
vn -0.5968 -0.5747 0.5600
vn 0.2188 -0.9318 -0.2894
vn -0.9631 -0.1751 0.2043
vn 0.7755 0.6102 0.1621
vn -0.9718 -0.2082 0.1111
vn 0.6544 0.3133 0.6882
vn -0.5878 0.7820 0.2075
vn 0.6051 -0.0000 0.7962
vn 0.1729 0.9142 0.3664
vn 0.9055 0.3186 0.2803
vn -0.5512 0.0490 -0.8329
vn 0.0419 0.4457 -0.8942
vn -0.0837 0.9512 0.2971
vn 0.9164 0.2516 -0.3112
vn 0.0442 0.3291 -0.9433
vn -0.5266 0.8315 0.1767
vn -0.5013 0.5979 0.6255
vn 0.0419 -0.4457 -0.8942
vn 0.2215 0.9337 -0.2813
vn -0.1826 0.3877 0.9035
vn -0.5576 0.7758 -0.2954
vn 0.2315 -0.9617 -0.1468
vn -0.7290 0.4390 0.5252
vn 0.2315 0.9617 -0.1468
vn -0.0550 -0.7238 0.6878
vn 0.4025 0.0079 0.9154
vn -0.6075 0.1687 -0.7762
vn 0.2330 -0.9613 -0.1472
vn -0.5576 -0.7758 -0.2954
vn 0.2898 0.3669 -0.8840
vn -0.9012 0.4153 -0.1237
vn 0.2898 -0.3669 -0.8840
vn 0.2330 0.9613 -0.1472
vn -0.7277 -0.2854 -0.6237
vn 0.9806 0.1681 -0.1005
vn -0.7697 0.2925 -0.5674
vn -0.7697 -0.2925 -0.5674
vn -0.7277 0.2854 -0.6237
vn -0.4817 -0.1404 -0.8650
vn -0.1826 -0.3877 0.9035
vn 0.1341 0.9570 -0.2574
vn -0.8845 -0.3468 0.3122
vn -0.0837 -0.9512 0.2971
vn 0.3695 -0.8868 -0.2775
vn 0.7934 0.5383 0.2841
vn -0.0917 -0.7460 0.6596
vn 0.3695 0.8868 -0.2775
vn -0.0847 0.3723 0.9243
vn -0.0845 -0.3720 0.9244
vn -0.5480 -0.4209 -0.7228
vn -0.1247 0.6328 0.7642
vn -0.1247 -0.6328 0.7642
vn -0.2407 0.7325 0.6368
vn -0.2407 -0.7325 0.6368
vn -0.3727 -0.4693 0.8006
vn -0.5480 0.4209 -0.7228
vn 0.7934 -0.5383 0.2841
vn -0.0041 -0.8073 -0.5901
vn -0.3727 0.4693 0.8006
vn 0.2941 0.4463 0.8452
vn 0.5082 -0.2144 0.8341
vn 0.1341 -0.9570 -0.2574
vn -0.2308 -0.2535 -0.9394
vn -0.2308 0.2535 -0.9394
vn -0.4565 -0.6941 0.5566
vn 0.5030 0.7784 0.3756
vn 0.3596 -0.3420 -0.8682
vn -0.8894 0.4467 -0.0975
vn -0.8707 0.4319 -0.2354
vn -0.6367 -0.2038 -0.7437
vn 0.3596 0.3420 -0.8682
vn 0.4041 -0.9091 -0.1010
vn -0.9395 0.1788 -0.2923
vn -0.7717 0.5257 0.3579
vn -0.9395 -0.1788 -0.2923
vn -0.4748 -0.1131 -0.8728
vn -0.4577 0.7217 0.5193
vn -0.7290 -0.4390 0.5252
vn -0.4151 -0.6304 0.6560
vn -0.4151 0.6304 0.6560
vn 0.2461 0.7507 0.6131
vn -0.1282 -0.6302 0.7658
vn -0.9560 -0.2759 -0.0999
vn -0.8585 -0.4435 -0.2575
vn -0.0923 -0.9906 -0.1009
vn -0.8628 0.4825 -0.1507
vn -0.6134 -0.5313 -0.5844
vn -0.7901 0.5802 -0.1975
vn -0.5013 -0.5979 0.6255
vn 0.2470 -0.9551 0.1636
vn -0.8856 0.4603 -0.0616
vn -0.8824 -0.4159 -0.2200
vn -0.1501 0.9008 0.4075
vn 0.0825 0.9227 0.3765
vn 0.2063 -0.8717 0.4446
vn 0.0725 0.9972 0.0181
vn 0.0725 -0.9972 0.0181
vn -0.5512 -0.0490 -0.8329
vn -0.1501 -0.9008 0.4075
vn 0.3185 -0.2984 -0.8997
vn -0.9267 0.2527 -0.2780
vn -0.3896 0.2968 0.8719
vn -0.6964 0.5306 0.4832
vn -0.7901 -0.5802 -0.1975
vn 0.0865 0.8222 0.5626
vn 0.2470 0.9551 0.1636
vn -0.6134 0.5313 -0.5844
vn 0.0865 -0.8222 0.5626
vn -0.7717 -0.5257 0.3579
vn -0.8856 -0.4603 -0.0616
vn -0.0923 0.9906 -0.1009
vn -0.6964 -0.5306 0.4832
vn 0.4041 0.9091 -0.1010
vn -0.3896 -0.2968 0.8719
vn 0.3185 0.2984 -0.8997
vn -0.9791 0.1798 0.0949
vn -0.8711 -0.2074 -0.4452
vn -0.9718 0.2082 0.1111
vn 0.4082 0.8165 0.4082
vn -0.9560 0.2759 -0.0999
vn -0.4565 0.6941 0.5566
vn -0.9012 -0.4153 -0.1237
vn -0.8894 -0.4467 -0.0975
vn 0.5030 -0.7784 0.3756
vn -0.8497 -0.1619 0.5017
vn 0.4025 -0.0079 0.9154
vn -0.0041 0.8073 -0.5901
vn -0.9139 -0.4044 0.0364
vn 0.4082 -0.8165 0.4082
vn -0.6196 -0.7849 -0.0000
vn -0.5039 0.8638 -0.0000
vn -0.6196 0.7849 -0.0000
vn -0.5039 -0.8638 -0.0000
vn -0.8087 0.5882 -0.0000
vn -0.5434 0.0978 -0.8337
vn -0.5434 0.0978 0.8337
vn -0.5434 -0.0978 0.8337
vn -0.5434 -0.0978 -0.8337
vn 0.4245 -0.4752 0.7707
vn -0.8575 0.4677 0.2144
vn -0.9512 0.0724 0.2998
vn -0.0000 -0.2916 -0.9565
vn 0.8641 -0.5031 -0.0139
vn 0.7574 0.6476 0.0834
vn -0.8043 0.5687 -0.1721
vn -0.8043 -0.5687 -0.1721
vn -0.2822 0.4515 0.8465
vn -0.2533 -0.1752 0.9514
vn -0.1966 0.8733 0.4458
vn 0.0022 0.9830 -0.1834
vn 0.0022 -0.9830 -0.1834
vn -0.1966 -0.8733 0.4458
vn -0.1800 -0.8739 -0.4516
vn -0.0708 -0.7040 -0.7066
vn -0.0690 0.7030 -0.7078
vn -0.8833 0.3474 0.3147
vn -0.8833 -0.3474 0.3147
vn -0.8478 0.0519 0.5277
vn -0.9380 -0.0683 0.3398
vn -0.8451 0.5038 0.1788
vn -0.7731 -0.3361 0.5378
vn -0.9008 0.4282 0.0727
vn -0.9068 0.3113 -0.2842
vn -0.9088 -0.2870 0.3029
vn -0.9872 -0.0955 -0.1274
vn -0.9287 0.0678 0.3647
vn -0.9595 -0.1341 -0.2476
vn -0.3581 -0.8634 -0.3554
vn -0.8927 0.2016 0.4031
vn -0.8927 -0.2016 0.4031
vn -0.3452 0.5805 0.7374
vn -0.2178 -0.8440 -0.4901
vn 0.9138 -0.0000 -0.4061
vn 0.0925 0.9101 -0.4039
vn -0.5681 -0.0631 0.8206
vn -0.5681 0.0631 0.8206
vn -0.1897 -0.2530 0.9487
vn -0.4174 -0.4816 -0.7706
vn -0.2218 0.9366 0.2711
vn -0.9088 0.2870 0.3029
vn -0.9603 0.2344 -0.1512
vn -0.9603 -0.2344 -0.1512
vn -0.8737 -0.3039 0.3799
vn -0.8737 0.3039 0.3799
vn -0.2290 -0.0000 -0.9734
vn 0.8547 -0.3746 0.3595
vn -0.2656 0.9435 -0.1983
vn 0.0395 -0.8093 0.5860
vn -0.7008 0.4117 0.5825
vn 0.4245 0.4752 0.7707
vn -0.8845 0.3468 0.3122
vn 0.8547 0.3746 0.3595
vn 0.8641 0.5031 -0.0139
vn -0.0000 0.2916 -0.9565
vn -0.9139 0.4044 0.0364
vn 0.1871 -0.2638 -0.9462
vn 0.1871 0.2638 -0.9462
vn -0.5878 -0.7820 0.2075
vn -0.0845 0.3720 0.9244
vn -0.0847 -0.3723 0.9243
vn -0.7946 0.3070 0.5237
vn -0.7946 -0.3070 0.5237
vn 0.5082 0.2144 0.8341
vn 0.2941 -0.4463 0.8452
vn -0.3250 -0.5704 -0.7543
vn -0.3250 0.5704 -0.7543
vn -0.4755 -0.6984 0.5349
vn -0.6367 0.2038 -0.7437
vn -0.8707 -0.4319 -0.2354
vn 0.1302 -0.9113 -0.3906
vn 0.1302 0.9113 -0.3906
vn -0.1282 0.6302 0.7658
vn 0.2461 -0.7507 0.6131
vn -0.9542 -0.2886 0.0785
vn -0.9267 -0.2527 -0.2780
vn -0.8824 0.4159 -0.2200
vn -0.8628 -0.4825 -0.1507
vn 0.2063 0.8717 0.4446
vn 0.0825 -0.9227 0.3765
vn -0.8585 0.4435 -0.2575
vn -0.9542 0.2886 0.0785
vn -0.4755 0.6984 0.5349
vn -0.6075 -0.1687 -0.7762
vn -0.5365 0.1022 -0.8377
vt 0.993559 0.142582
vt 0.950983 0.208073
vt 0.950550 0.165280
vt 0.923540 0.917247
vt 0.966140 0.982876
vt 0.923107 0.960040
vt 0.322840 0.958275
vt 0.343141 0.940424
vt 0.364867 0.958246
vt 0.327727 0.695841
vt 0.307461 0.671316
vt 0.327727 0.655708
vt 0.069428 0.892802
vt 0.025665 0.917696
vt 0.067722 0.884730
vt 0.804820 0.397791
vt 0.851699 0.335476
vt 0.852124 0.377853
vt 0.085149 0.434526
vt 0.055855 0.417006
vt 0.113010 0.419914
vt 0.123874 0.924980
vt 0.158544 0.922545
vt 0.130550 0.949762
vt 0.133929 0.521700
vt 0.138308 0.506061
vt 0.132567 0.541060
vt 0.379339 0.143159
vt 0.383432 0.221810
vt 0.333741 0.192659
vt 0.796530 0.674656
vt 0.768199 0.662459
vt 0.819619 0.652658
vt 0.778602 0.603338
vt 0.752757 0.227885
vt 0.727168 0.281199
vt 0.691805 0.245658
vt 0.268114 0.703404
vt 0.268114 0.661378
vt 0.289384 0.683304
vt 0.322840 0.901761
vt 0.321683 0.939795
vt 0.273418 0.928582
vt 0.364867 0.915467
vt 0.126345 0.886869
vt 0.124142 0.894799
vt 0.096412 0.905802
vt 0.104519 0.265201
vt 0.124466 0.397399
vt -0.000000 0.326116
vt 0.307461 0.661795
vt 0.558664 0.928679
vt 0.574647 0.956591
vt 0.534174 0.946721
vt 0.655140 0.862137
vt 0.663531 0.823447
vt 0.755934 0.862468
vt 0.786924 0.441807
vt 0.763862 0.455001
vt 0.773744 0.425240
vt 0.141875 0.770390
vt 0.098957 0.754199
vt 0.132884 0.749086
vt 0.019802 0.593095
vt 0.014495 0.515928
vt 0.032021 0.519375
vt 0.958515 0.702088
vt 0.930451 0.660039
vt 0.980535 0.660048
vt 0.000000 0.885328
vt 0.322840 0.915496
vt 0.278615 0.810286
vt 0.249680 0.832284
vt 0.072719 0.898981
vt 0.750810 0.154761
vt 0.727146 0.157657
vt 0.747215 0.126935
vt 0.916341 0.702088
vt 0.928915 0.715795
vt 0.916341 0.736443
vt 0.099819 0.823720
vt 0.102534 0.791574
vt 0.122126 0.784533
vt 0.859966 0.384737
vt 0.852124 0.395901
vt 0.852124 0.373918
vt 0.347219 0.087733
vt 0.281545 0.102593
vt 0.281049 0.045141
vt 0.756857 0.330890
vt 0.696788 0.340547
vt 0.113621 0.548485
vt 0.119876 0.565505
vt 0.096042 0.560238
vt 0.025886 0.454012
vt 0.000000 0.451569
vt 0.061668 0.709719
vt 0.034601 0.653892
vt 0.076418 0.701767
vt 0.160995 0.746112
vt 0.058888 0.445100
vt 0.134675 0.626302
vt 0.165865 0.616906
vt 0.157541 0.643656
vt 0.930451 0.575960
vt 0.980535 0.575969
vt 0.512432 0.028900
vt 0.384121 0.217731
vt 0.391251 0.055275
vt 0.592424 0.563489
vt 0.424174 0.734855
vt 0.384121 0.565984
vt 0.791656 0.922387
vt 0.806966 0.901604
vt 0.949797 0.502856
vt 0.823630 0.475817
vt 0.925523 0.446439
vt 0.688886 0.894754
vt 0.636339 0.922387
vt 0.025631 0.788239
vt 0.079136 0.782964
vt 0.199372 0.861762
vt 0.230883 0.062611
vt 0.221512 0.010239
vt 0.343304 0.256600
vt 0.245909 0.245723
vt 0.191368 0.342265
vt 0.104528 0.047953
vt 0.825475 0.059537
vt 0.891423 0.033487
vt 0.900747 0.090817
vt 0.702217 0.636486
vt 0.384121 0.290829
vt 0.293234 0.373577
vt 0.741863 0.492408
vt 0.194406 0.754299
vt 0.178081 0.669453
vt 0.167227 0.658494
vt 0.687597 0.136709
vt 0.696960 0.286857
vt 0.911524 0.370067
vt 0.852124 0.305813
vt 0.913336 0.297051
vt 0.383660 0.551910
vt 0.379592 0.592521
vt 0.379592 0.531355
vt 0.341470 0.764681
vt 0.307461 0.764681
vt 0.313261 0.727765
vt 0.058246 0.770390
vt 0.723087 0.071353
vt 0.153841 0.567509
vt 0.139982 0.595833
vt 0.193634 0.502741
vt 0.230632 0.654734
vt 0.702517 0.962213
vt 0.688875 0.947105
vt 0.702517 0.934189
vt 0.654079 0.694697
vt 0.715142 0.695014
vt 0.632727 0.741179
vt 0.170868 0.726153
vt 0.191706 0.152193
vt 0.047671 0.490162
vt 0.104093 0.721952
vt 0.132654 0.738821
vt 0.065618 0.553713
vt 0.076482 0.565358
vt 0.092441 0.663908
vt 0.094347 0.698626
vt 0.064207 0.457634
vt 0.104272 0.452565
vt 0.103973 0.601710
vt 0.116390 0.643834
vt 0.136744 0.643481
vt 0.221498 0.811738
vt 0.244353 0.800602
vt 0.081298 0.931589
vt 0.048478 0.946768
vt 0.065251 0.922841
vt 0.104748 0.932445
vt 0.634670 0.922387
vt 0.656865 0.922432
vt 0.652784 0.946434
vt 0.709669 0.922387
vt 0.721735 0.937184
vt 0.709669 0.950630
vt 0.376486 0.549617
vt 0.356133 0.511557
vt 0.376486 0.507824
vt 0.859966 0.383837
vt 0.867797 0.373918
vt 0.867797 0.395403
vt 0.251330 0.757496
vt 0.231022 0.749345
vt 0.251330 0.732183
vt 0.656865 0.952472
vt 0.676495 0.965744
vt 0.663046 0.966834
vt 0.531098 0.906356
vt 0.565395 0.906356
vt 0.356133 0.624694
vt 0.372200 0.612927
vt 0.372200 0.632713
vt 0.119617 0.900692
vt 0.633947 0.807884
vt 0.639347 0.741179
vt 0.661538 0.780161
vt 0.080955 0.151741
vt 0.114325 0.919081
vt 0.091985 0.910154
vt 0.578203 0.921131
vt 0.730500 0.937365
vt 0.721735 0.948080
vt 0.721735 0.922387
vt 0.016136 0.622272
vt 0.062439 0.609849
vt 0.941493 0.722689
vt 0.928915 0.736322
vt 0.928915 0.702088
vt 0.000000 0.666842
vt 0.020206 0.647454
vt 0.697230 0.922387
vt 0.069790 0.463861
vt 0.049950 0.516234
vt 0.632727 0.946424
vt 0.634670 0.970432
vt 0.998764 0.399157
vt 0.998764 0.497989
vt 0.956486 0.429434
vt 0.270998 0.758909
vt 0.255705 0.746725
vt 0.270998 0.732183
vt 0.286188 0.760630
vt 0.301431 0.750690
vt 0.306134 0.760630
vt 0.123823 0.489076
vt 0.676495 0.936431
vt 0.668078 0.922387
vt 0.092837 0.938018
vt 0.364867 0.936656
vt 0.379519 0.915467
vt 0.379519 0.965833
vt 0.656865 0.970477
vt 0.095906 0.645154
vt 0.163693 0.110748
vt 0.134537 0.729849
vt 0.152476 0.727394
vt 0.086805 0.457606
vt 0.105986 0.652718
vt 0.067427 0.917370
vt 0.081937 0.553923
vt 0.172846 0.690467
vt 0.949955 0.702088
vt 0.949955 0.733214
vt 0.941493 0.719228
vt 0.697982 0.191495
vt 0.676891 0.164497
vt 0.923107 0.778222
vt 0.806966 0.850471
vt 0.821780 0.741179
vt 0.367496 0.745440
vt 0.341470 0.756408
vt 0.341470 0.727765
vt 0.809906 0.494761
vt 0.823630 0.529808
vt 0.680438 0.034661
vt 0.659910 0.077386
vt 0.650971 0.044232
vt 0.632255 0.000090
vt 0.756857 0.177808
vt 0.379648 0.766431
vt 0.383613 0.804561
vt 0.379648 0.823017
vt 0.074921 0.759355
vt 0.309233 0.831807
vt 0.322840 0.770390
vt 0.573256 0.349791
vt 0.667020 0.287961
vt 0.859821 0.195036
vt 0.756857 0.169177
vt 0.457441 0.421853
vt 0.566444 0.399157
vt 0.619601 0.467034
vt 0.949695 0.054009
vt 0.262284 0.595687
vt 0.230632 0.594697
vt 0.248375 0.554779
vt 0.526281 0.777050
vt 0.594448 0.703694
vt 0.916341 0.617974
vt 0.857735 0.399157
vt 0.641145 0.848910
vt 0.632727 0.833804
vt 0.956486 0.399157
vt 0.203339 0.848865
vt 0.158544 0.843765
vt 0.261032 0.802568
vt 0.968392 0.808011
vt 0.977854 0.827368
vt 0.968392 0.873219
vt 0.230632 0.442802
vt 0.289271 0.428382
vt 0.247162 0.461063
vt -0.000000 0.182626
vt 0.322815 0.483727
vt 0.356133 0.475133
vt 0.337955 0.513587
vt 0.245676 0.146254
vt 0.277796 0.201680
vt 0.950550 0.171716
vt 0.937151 0.207238
vt 0.494714 0.799500
vt 0.566905 0.906356
vt 0.461128 0.880869
vt 0.607052 0.936989
vt 0.609274 0.906356
vt 0.626607 0.941438
vt 0.543522 0.399157
vt 0.452075 0.376166
vt 0.791854 0.855547
vt 0.315484 0.505707
vt 0.467862 -0.000000
vt 0.781831 0.210902
vt 0.735149 0.455235
vt 0.663700 0.476863
vt 0.744117 0.399157
vt 0.313014 0.443288
vt 0.331830 0.435489
vt 0.855294 0.235603
vt 0.867730 0.297051
vt 0.922170 0.549865
vt 0.070442 0.109297
vt 0.005826 0.132951
vt 0.055977 0.064452
vt 0.261950 0.528466
vt 0.632929 0.527809
vt 0.344439 0.417006
vt 0.623257 0.057076
vt 0.588987 0.174221
vt 0.484245 0.906356
vt 0.531098 0.906356
vt 0.528919 0.986834
vt 0.268084 0.290880
vt 0.417669 0.961576
vt 0.384121 0.953925
vt 0.400187 0.919156
vt 0.632727 0.402502
vt 0.632727 0.438237
vt 0.758399 0.297051
vt 0.223014 0.372567
vt 0.249861 0.116257
vt 0.306071 0.213252
vt 0.313864 0.206463
vt 0.599460 0.751239
vt 0.578203 0.969418
vt 0.578203 0.906356
vt 0.607052 0.943477
vt 0.259661 0.112933
vt 0.170442 0.417006
vt 0.950550 0.119180
vt 0.993690 0.105854
vt 0.961399 0.142582
vt 0.923107 0.851927
vt 0.968391 0.854635
vt 0.962508 0.881174
vt 0.753057 0.413167
vt 0.378895 0.915467
vt 0.322840 0.846772
vt 0.378895 0.770390
vt 0.960001 0.082465
vt 0.970299 -0.000000
vt 0.916341 0.571234
vt 0.898338 0.658967
vt 0.897513 0.589615
vt 0.952951 0.816493
vt 0.923107 0.741179
vt 0.999461 0.990513
vt 0.978214 0.935996
vt 0.966140 0.881174
vt 0.916341 0.691369
vt 0.894051 0.733074
vt 0.882538 0.694537
vt 0.419279 0.928586
vt 0.440771 0.906356
vt 0.247730 0.634121
vt 0.607052 0.979443
vt 0.886326 0.239461
vt 0.912436 0.257411
vt 0.894698 0.266794
vt 0.378980 0.570066
vt 0.356133 0.561465
vt 0.367941 0.549617
vt 0.988158 0.755286
vt 0.968391 0.770666
vt 0.980037 0.741179
vt 0.074473 0.067720
vt 0.261172 0.389880
vt 0.237595 0.401213
vt 0.846715 0.653953
vt 0.863155 0.607290
vt 0.881589 0.644340
vt 0.884235 0.667282
vt 0.999461 0.881450
vt 0.281889 0.488003
vt 0.306884 0.438521
vt 0.812517 0.437619
vt 0.798372 0.465624
vt 0.270998 0.732183
vt 0.286188 0.765442
vt 0.270998 0.770263
vt 0.688875 0.922387
vt 0.688875 0.966861
vt 0.676496 0.953165
vt 0.276498 0.429800
vt 0.838055 0.566386
vt 0.868870 0.560946
vt 0.925948 0.236866
vt 0.941984 0.233577
vt 0.813844 0.469792
vt 0.374970 0.478504
vt 0.950550 0.022241
vt 0.259473 0.557711
vt 0.296270 0.542499
vt 0.285227 0.571682
vt 0.702517 0.964741
vt 0.709669 0.922387
vt 0.709669 0.975236
vt 0.968391 0.746558
vt 0.383613 0.745908
vt 0.367496 0.766431
vt 0.367496 0.727765
vt 0.378980 0.550508
vt 0.992221 0.282633
vt 0.958904 0.394520
vt 0.958904 0.284152
vt 0.823630 0.597409
vt 0.829711 0.618245
vt 0.981015 0.338264
vt 0.376496 0.478504
vt 0.383660 0.520876
vt 0.376496 0.531355
vt 0.948749 0.755333
vt 0.338784 0.541057
vt 0.310135 0.556525
vt 0.859995 0.549865
vt 0.352598 0.788100
vt 0.384121 0.906610
vt 0.632727 0.809200
vt 0.307461 0.703821
vt 0.254721 0.407396
vt 0.383660 0.417006
vt 0.383660 0.478504
vt 0.356133 0.457478
vt 0.484245 1.000000
vt 0.440771 0.926737
vt 0.484245 0.906356
vt 0.958904 0.321308
vt 0.913336 0.394520
vt 0.913336 0.297051
vt 0.230632 0.732183
vt 0.380571 0.727765
vt 0.380571 0.634121
vt 0.756857 0.297051
vt 0.804397 0.363650
vt 0.756857 0.398552
vt 0.993559 0.244284
vt 0.966140 0.881174
vt 0.804820 0.297051
vt 0.855489 0.549865
vt 0.167580 -0.000000
vt 0.837715 0.000000
vt 0.366324 0.342944
vt 0.852124 0.373918
vt 0.230632 0.760848
vt 0.360202 0.616721
vt 0.008181 0.598057
vt 0.251330 0.761906
vt 0.286687 0.732183
vt 0.923107 0.934248
vt 0.832789 0.426123
vt 0.001293 0.949762
vt 0.410079 0.978330
vt 0.734985 0.445873
vt 0.374952 0.612927
vt 0.987441 0.808011
vt 0.052904 0.082517
vt 0.857247 0.679092
vt 0.440771 0.966870
vt 0.958904 0.363080
vt 0.230632 0.634121
vt 0.804819 0.320935
s 0
f 7/1/1 1/2/1 5/3/1
f 2/4/2 8/5/2 6/6/2
f 5/7/3 17/8/3 9/9/3
f 2/10/4 18/11/4 14/12/4
f 44/13/5 69/14/5 77/15/5
f 12/16/6 14/17/6 10/18/6
f 41/19/7 59/20/7 61/21/7
f 47/22/8 70/23/8 72/24/8
f 120/25/9 98/26/9 108/27/9
f 68/28/10 56/29/10 27/30/10
f 58/31/11 60/32/11 32/33/11
f 32/33/12 60/32/12 133/34/12
f 63/35/13 33/36/13 126/37/13
f 6/38/14 10/39/14 18/40/14
f 29/41/15 70/42/15 78/43/15
f 9/9/16 17/8/16 13/44/16
f 78/45/17 45/46/17 43/47/17
f 25/48/18 168/49/18 24/50/18
f 10/39/19 14/51/19 18/40/19
f 84/52/20 81/53/20 21/54/20
f 147/55/21 85/56/21 28/57/21
f 198/58/22 208/59/22 210/60/22
f 60/61/23 58/62/23 40/63/23
f 67/64/24 55/65/24 37/66/24
f 30/67/25 71/68/25 151/69/25
f 77/15/26 69/14/26 28/70/26
f 1/71/27 17/8/27 5/7/27
f 148/72/28 29/41/28 86/73/28
f 44/13/29 43/47/29 91/74/29
f 43/47/17 44/13/17 77/15/17
f 20/75/30 19/76/30 66/77/30
f 81/78/31 54/79/31 21/80/31
f 79/81/32 21/82/32 54/83/32
f 50/84/33 49/85/33 82/86/33
f 67/87/34 26/88/34 55/89/34
f 47/22/35 45/46/35 70/23/35
f 33/36/36 61/90/36 130/91/36
f 110/92/37 35/93/37 96/94/37
f 57/95/38 31/96/38 59/20/38
f 56/97/39 68/98/39 38/99/39
f 60/61/40 40/63/40 42/100/40
f 57/95/41 59/20/41 39/101/41
f 36/102/42 66/103/42 109/104/42
f 151/69/43 72/105/43 152/106/43
f 162/107/44 23/108/44 166/109/44
f 24/110/45 166/111/45 23/112/45
f 151/113/46 28/57/46 30/114/46
f 149/115/47 152/116/47 150/117/47
f 147/55/48 149/118/48 157/119/48
f 77/15/49 85/120/49 53/121/49
f 86/73/50 78/43/50 54/122/50
f 55/89/51 134/123/51 31/124/51
f 56/29/52 135/125/52 27/30/52
f 25/48/53 158/126/53 174/127/53
f 141/128/54 31/124/54 134/123/54
f 130/129/55 59/130/55 132/131/55
f 60/32/56 131/132/56 133/34/56
f 32/133/57 142/134/57 135/125/57
f 131/132/58 138/135/58 133/34/58
f 60/61/59 42/100/59 62/136/59
f 99/137/60 121/138/60 109/104/60
f 66/77/61 19/76/61 125/139/61
f 33/36/62 128/140/62 126/37/62
f 124/141/63 63/142/63 126/143/63
f 118/144/64 100/145/64 98/146/64
f 129/147/65 34/148/65 127/149/65
f 61/90/66 33/36/66 63/35/66
f 87/150/67 53/121/67 85/120/67
f 125/139/68 64/151/68 66/77/68
f 65/152/69 20/153/69 35/93/69
f 63/154/9 108/27/9 98/26/9
f 109/104/60 64/155/60 99/137/60
f 80/156/70 51/157/70 82/158/70
f 34/159/71 62/160/71 64/161/71
f 98/26/72 61/21/72 63/154/72
f 99/137/73 62/136/73 101/162/73
f 158/126/74 25/48/74 157/163/74
f 57/95/75 104/164/75 37/66/75
f 58/62/76 105/165/76 40/63/76
f 103/166/77 40/63/77 105/165/77
f 62/136/78 42/100/78 101/162/78
f 67/64/79 106/167/79 75/168/79
f 68/98/80 107/169/80 38/99/80
f 38/99/81 113/170/81 105/165/81
f 39/101/82 102/171/82 104/164/82
f 41/19/83 61/21/83 100/172/83
f 96/94/84 74/173/84 75/168/84
f 97/174/85 74/173/85 36/102/85
f 111/175/86 36/102/86 109/104/86
f 86/73/87 27/176/87 156/177/87
f 89/178/88 71/179/88 46/180/88
f 72/24/89 90/181/89 47/22/89
f 92/182/90 95/183/90 93/184/90
f 67/185/91 51/186/91 87/187/91
f 44/13/92 46/180/92 69/14/92
f 78/45/93 77/15/93 79/81/93
f 203/188/94 189/189/94 199/190/94
f 50/191/95 83/192/95 49/193/95
f 80/194/96 87/195/96 51/196/96
f 81/197/97 88/198/97 54/199/97
f 84/52/98 80/200/98 82/201/98
f 39/101/99 59/20/99 41/19/99
f 80/200/100 84/52/100 21/54/100
f 82/202/101 83/203/101 84/204/101
f 43/47/102 45/46/102 92/205/102
f 26/206/103 67/207/103 87/208/103
f 85/56/104 26/206/104 87/208/104
f 157/163/105 25/48/105 173/209/105
f 95/210/106 90/181/106 93/211/106
f 81/53/107 84/52/107 83/212/107
f 83/213/108 50/214/108 52/215/108
f 50/216/109 67/64/109 73/217/109
f 68/98/110 50/216/110 73/217/110
f 53/218/111 80/219/111 21/220/111
f 68/98/112 88/221/112 52/222/112
f 50/223/113 82/158/113 51/157/113
f 114/224/114 112/225/114 104/164/114
f 43/226/115 93/184/115 91/227/115
f 128/228/116 124/229/116 126/230/116
f 94/231/117 46/232/117 91/233/117
f 95/234/118 47/235/118 90/236/118
f 120/25/119 118/237/119 98/26/119
f 78/45/120 79/81/120 54/83/120
f 52/238/121 81/197/121 83/239/121
f 92/205/122 45/46/122 47/22/122
f 90/181/123 89/178/123 93/211/123
f 90/181/17 48/240/17 89/178/17
f 70/23/124 45/46/124 78/45/124
f 170/241/125 188/242/125 208/243/125
f 94/244/126 91/227/126 93/184/126
f 76/245/127 73/217/127 74/173/127
f 171/246/128 157/163/128 173/209/128
f 74/173/129 20/153/129 36/102/129
f 20/153/130 66/103/130 36/102/130
f 112/225/131 37/66/131 104/164/131
f 73/217/132 76/245/132 68/98/132
f 37/66/133 55/65/133 57/95/133
f 104/164/134 102/171/134 114/224/134
f 58/62/135 56/97/135 38/99/135
f 115/247/136 117/248/136 103/166/136
f 116/249/137 41/19/137 100/172/137
f 42/100/138 117/248/138 101/162/138
f 76/245/139 123/250/139 107/169/139
f 94/251/140 93/211/140 89/178/140
f 42/100/141 40/63/141 103/166/141
f 73/217/142 75/168/142 74/173/142
f 35/93/143 20/153/143 74/173/143
f 122/252/144 75/168/144 106/167/144
f 75/168/145 73/217/145 67/64/145
f 101/162/146 117/248/146 119/253/146
f 39/101/147 41/19/147 102/171/147
f 114/224/148 102/171/148 116/249/148
f 105/165/149 113/170/149 115/247/149
f 107/169/150 123/250/150 113/170/150
f 115/247/151 103/166/151 105/165/151
f 118/237/152 116/249/152 100/172/152
f 111/254/153 123/255/153 97/256/153
f 99/137/154 119/253/154 121/138/154
f 121/138/155 111/175/155 109/104/155
f 108/27/156 110/92/156 120/25/156
f 112/225/157 122/252/157 106/167/157
f 125/139/158 124/257/158 22/258/158
f 177/259/159 223/260/159 221/261/159
f 96/94/160 122/252/160 110/92/160
f 79/81/161 77/15/161 53/121/161
f 19/262/162 20/263/162 65/264/162
f 202/265/163 142/266/163 138/135/163
f 35/93/164 108/27/164 65/152/164
f 34/267/165 64/151/165 127/268/165
f 129/269/166 131/270/166 34/267/166
f 19/76/167 65/271/167 124/257/167
f 101/272/168 119/273/168 99/274/168
f 128/140/169 33/36/169 130/91/169
f 58/62/170 32/275/170 56/97/170
f 62/160/171 34/159/171 131/132/171
f 150/276/172 148/72/172 158/277/172
f 161/278/173 159/279/173 130/91/173
f 130/129/174 137/280/174 161/281/174
f 165/282/175 139/283/175 167/284/175
f 59/130/176 31/285/176 132/131/176
f 203/286/177 175/287/177 189/288/177
f 31/96/178 57/95/178 55/65/178
f 140/289/179 166/111/179 168/290/179
f 48/291/180 72/105/180 71/68/180
f 152/116/181 29/292/181 150/117/181
f 71/179/182 69/14/182 46/180/182
f 85/56/183 153/293/183 155/294/183
f 148/295/184 150/117/184 29/292/184
f 88/296/185 68/297/185 27/176/185
f 154/298/186 148/72/186 86/73/186
f 54/299/187 88/300/187 86/301/187
f 156/177/188 154/298/188 86/73/188
f 46/180/189 44/13/189 91/74/189
f 149/118/190 147/55/190 28/57/190
f 177/302/191 185/303/191 191/304/191
f 167/305/192 25/48/192 24/50/192
f 195/306/193 181/307/193 187/308/193
f 158/126/194 149/309/194 150/310/194
f 141/311/195 201/312/195 137/280/195
f 224/313/196 178/314/196 222/315/196
f 200/316/197 218/317/197 190/318/197
f 161/278/198 163/319/198 165/320/198
f 141/311/199 137/280/199 132/131/199
f 165/282/200 24/110/200 23/112/200
f 23/108/201 161/278/201 165/320/201
f 69/321/202 30/114/202 28/57/202
f 215/322/203 195/306/203 187/308/203
f 166/109/204 164/323/204 162/107/204
f 147/55/205 153/293/205 85/56/205
f 134/123/206 171/246/206 141/128/206
f 163/324/207 161/281/207 137/280/207
f 170/325/208 164/326/208 140/327/208
f 195/306/209 193/328/209 183/329/209
f 169/330/210 139/331/210 163/324/210
f 152/106/211 72/105/211 70/332/211
f 143/333/212 145/334/212 175/335/212
f 191/304/213 217/336/213 189/288/213
f 164/326/214 170/325/214 138/135/214
f 164/326/215 138/135/215 162/337/215
f 128/140/216 130/91/216 159/279/216
f 179/338/217 183/329/217 185/303/217
f 131/270/218 129/269/218 160/339/218
f 137/280/219 169/330/219 163/324/219
f 160/339/220 22/258/220 136/340/220
f 129/341/221 127/342/221 125/343/221
f 124/257/222 159/279/222 22/258/222
f 160/339/223 125/139/223 22/258/223
f 22/258/224 159/279/224 136/340/224
f 160/339/225 162/107/225 131/270/225
f 172/344/226 135/125/226 142/134/226
f 153/293/227 147/55/227 157/119/227
f 196/345/228 182/346/228 184/347/228
f 138/135/229 142/266/229 133/34/229
f 166/348/230 140/327/230 164/326/230
f 139/283/231 145/349/231 167/284/231
f 172/344/232 174/127/232 158/126/232
f 139/331/233 165/350/233 163/324/233
f 171/246/234 143/333/234 141/128/234
f 172/344/235 144/351/235 174/127/235
f 160/339/236 136/340/236 162/107/236
f 134/123/237 153/352/237 171/246/237
f 154/353/238 135/125/238 172/344/238
f 153/352/239 157/163/239 171/246/239
f 172/344/240 158/126/240 154/353/240
f 27/30/241 135/125/241 156/354/241
f 136/340/242 159/279/242 161/278/242
f 168/290/243 146/355/243 140/289/243
f 139/356/244 169/357/244 223/358/244
f 155/359/245 134/123/245 26/88/245
f 173/209/246 145/334/246 143/333/246
f 174/127/247 146/360/247 168/49/247
f 154/298/248 158/277/248 148/72/248
f 187/361/249 223/362/249 169/363/249
f 224/364/250 188/365/250 170/366/250
f 208/59/251 216/367/251 210/60/251
f 175/368/252 145/369/252 223/370/252
f 223/362/253 181/371/253 221/372/253
f 179/338/254 181/307/254 183/329/254
f 177/302/255 189/288/255 175/287/255
f 178/373/256 190/374/256 192/375/256
f 182/376/257 224/364/257 222/377/257
f 178/378/258 186/379/258 180/380/258
f 176/381/259 144/382/259 204/383/259
f 194/384/260 184/347/260 186/385/260
f 143/386/261 175/287/261 203/286/261
f 190/318/262 204/387/262 200/316/262
f 207/388/263 197/389/263 209/390/263
f 194/384/264 196/345/264 184/347/264
f 213/391/265 185/392/265 193/393/265
f 186/394/266 214/395/266 194/396/266
f 143/333/267 201/397/267 141/128/267
f 144/351/268 202/398/268 204/399/268
f 210/400/269 220/401/269 218/402/269
f 200/403/270 210/400/270 218/402/270
f 222/404/271 178/378/271 180/380/271
f 219/405/272 211/406/272 215/322/272
f 200/407/273 206/408/273 198/58/273
f 199/409/274 205/410/274 203/411/274
f 188/412/275 196/413/275 216/414/275
f 208/59/276 138/135/276 170/325/276
f 213/415/277 219/405/277 191/304/277
f 220/401/278 212/416/278 214/417/278
f 207/388/279 205/418/279 197/389/279
f 201/312/280 207/388/280 137/280/280
f 202/265/281 208/59/281 206/408/281
f 201/312/282 203/419/282 205/418/282
f 206/408/283 204/420/283 202/265/283
f 217/421/284 199/190/284 189/189/284
f 206/408/285 208/59/285 198/58/285
f 181/371/286 179/422/286 221/372/286
f 199/423/287 209/424/287 197/425/287
f 193/426/288 195/427/288 211/428/288
f 211/406/289 195/306/289 215/322/289
f 204/420/290 206/408/290 200/407/290
f 212/429/291 194/396/291 214/395/291
f 137/280/292 207/388/292 169/330/292
f 197/430/293 205/431/293 199/432/293
f 193/393/294 211/433/294 213/391/294
f 183/329/295 193/328/295 185/303/295
f 220/401/296 214/417/296 192/375/296
f 179/434/297 177/435/297 221/436/297
f 196/437/298 212/416/298 216/438/298
f 185/439/299 177/435/299 179/434/299
f 196/440/300 194/441/300 212/442/300
f 222/377/301 180/443/301 182/376/301
f 187/308/302 169/444/302 207/445/302
f 176/381/303 204/383/303 190/374/303
f 186/446/304 178/373/304 192/375/304
f 139/447/305 223/370/305 145/369/305
f 219/405/306 209/424/306 217/336/306
f 215/322/307 207/445/307 209/424/307
f 186/385/308 184/347/308 180/448/308
f 180/448/309 184/347/309 182/346/309
f 146/355/310 176/449/310 224/313/310
f 2/450/311 6/38/311 18/40/311
f 146/360/312 144/351/312 176/451/312
f 170/452/313 140/453/313 224/454/313
f 192/375/314 218/402/314 220/401/314
f 224/313/315 140/289/315 146/355/315
f 7/455/316 9/456/316 11/457/316
f 13/458/317 3/459/317 15/460/317
f 8/461/318 10/39/318 6/38/318
f 4/462/319 14/12/319 16/463/319
f 1/71/320 13/44/320 17/8/320
f 11/464/321 13/465/321 15/466/321
f 7/1/322 3/467/322 1/2/322
f 2/4/323 4/468/323 8/5/323
f 12/16/324 16/469/324 14/17/324
f 25/48/325 174/127/325 168/49/325
f 79/81/326 53/121/326 21/82/326
f 110/92/327 108/27/327 35/93/327
f 151/69/43 71/68/43 72/105/43
f 162/107/328 136/340/328 23/108/328
f 24/110/329 168/290/329 166/111/329
f 151/113/330 149/118/330 28/57/330
f 149/115/47 151/470/47 152/116/47
f 77/15/331 28/70/331 85/120/331
f 86/73/332 29/41/332 78/43/332
f 55/89/333 26/88/333 134/123/333
f 56/29/334 32/133/334 135/125/334
f 141/128/335 132/471/335 31/124/335
f 130/129/336 61/472/336 59/130/336
f 60/32/337 62/160/337 131/132/337
f 32/133/338 133/473/338 142/134/338
f 131/132/339 162/337/339 138/135/339
f 124/141/340 65/474/340 63/142/340
f 125/139/341 127/268/341 64/151/341
f 63/154/342 65/152/342 108/27/342
f 109/104/343 66/103/343 64/155/343
f 98/26/344 100/172/344 61/21/344
f 99/137/345 64/155/345 62/136/345
f 57/95/346 39/101/346 104/164/346
f 58/62/347 38/99/347 105/165/347
f 67/64/348 37/66/348 106/167/348
f 68/98/349 76/245/349 107/169/349
f 38/99/350 107/169/350 113/170/350
f 96/94/351 35/93/351 74/173/351
f 97/174/352 76/245/352 74/173/352
f 111/175/353 97/174/353 36/102/353
f 86/73/354 88/296/354 27/176/354
f 89/178/355 48/240/355 71/179/355
f 72/24/356 48/240/356 90/181/356
f 78/45/17 43/47/17 77/15/17
f 80/194/357 53/475/357 87/195/357
f 81/197/358 52/238/358 88/198/358
f 82/202/359 49/476/359 83/203/359
f 85/56/360 155/294/360 26/206/360
f 50/216/361 51/477/361 67/64/361
f 68/98/362 52/222/362 50/216/362
f 43/226/363 92/182/363 93/184/363
f 94/231/364 89/478/364 46/232/364
f 95/234/365 92/479/365 47/235/365
f 112/225/366 106/167/366 37/66/366
f 116/249/367 102/171/367 41/19/367
f 42/100/368 103/166/368 117/248/368
f 76/245/369 97/174/369 123/250/369
f 122/252/370 96/94/370 75/168/370
f 125/139/371 19/76/371 124/257/371
f 177/259/372 175/480/372 223/260/372
f 130/129/373 132/131/373 137/280/373
f 152/116/374 70/481/374 29/292/374
f 71/179/375 30/482/375 69/14/375
f 167/305/376 173/209/376 25/48/376
f 195/306/377 183/329/377 181/307/377
f 158/126/194 157/163/194 149/309/194
f 224/313/378 176/449/378 178/314/378
f 165/282/379 167/284/379 24/110/379
f 23/108/380 136/340/380 161/278/380
f 191/304/381 219/405/381 217/336/381
f 124/257/382 128/140/382 159/279/382
f 160/339/383 129/269/383 125/139/383
f 196/345/384 188/483/384 182/346/384
f 171/246/385 173/209/385 143/333/385
f 172/344/386 142/134/386 144/351/386
f 134/123/387 155/359/387 153/352/387
f 154/353/388 156/354/388 135/125/388
f 173/209/389 167/305/389 145/334/389
f 174/127/390 144/351/390 146/360/390
f 187/361/391 181/371/391 223/362/391
f 224/364/392 182/376/392 188/365/392
f 208/59/393 188/484/393 216/367/393
f 177/302/394 191/304/394 189/288/394
f 178/373/395 176/381/395 190/374/395
f 213/391/396 191/485/396 185/392/396
f 186/394/397 192/486/397 214/395/397
f 143/333/398 203/487/398 201/397/398
f 144/351/399 142/134/399 202/398/399
f 210/400/400 216/438/400 220/401/400
f 200/403/401 198/488/401 210/400/401
f 219/405/402 213/415/402 211/406/402
f 220/401/403 216/438/403 212/416/403
f 201/312/404 205/418/404 207/388/404
f 202/265/405 138/135/405 208/59/405
f 199/423/406 217/336/406 209/424/406
f 219/405/407 215/322/407 209/424/407
f 215/322/408 187/308/408 207/445/408
f 192/375/409 190/374/409 218/402/409
f 7/455/316 5/489/316 9/456/316
f 13/458/317 1/490/317 3/459/317
f 8/461/318 12/491/318 10/39/318
f 4/462/319 2/10/319 14/12/319
f 11/464/410 9/492/410 13/465/410
