# Blender 4.1.1
# www.blender.org
o Plane
v -1.000000 -1.000000 0.254476
v -1.000000 1.000000 0.000000
v 1.000000 -1.000000 0.000000
v 1.000000 1.000000 -0.354338
v 1.099062 -1.274494 -1.489437
v 1.099062 0.725506 -1.843774
v -0.211002 -1.844112 -1.182140
v -0.211002 0.155888 -1.536478
vn -0.1252 -0.1252 -0.9842
vn -0.9979 -0.0114 -0.0643
vn 0.1533 0.1724 0.9730
vn -0.1719 -0.1719 -0.9700
vt 1.000000 0.000000
vt 0.000000 1.000000
vt 0.000000 0.000000
vt 1.000000 1.000000
s 0
f 2/1/1 3/2/1 1/3/1
f 3/2/2 6/4/2 5/2/2
f 5/2/3 8/4/3 7/2/3
f 2/1/4 4/4/4 3/2/4
f 3/2/2 4/4/2 6/4/2
f 5/2/3 6/4/3 8/4/3
